<svg width="210" height="58" viewBox="0 0 210 58" fill="none" xmlns="http://www.w3.org/2000/svg">
<g clip-path="url(#clip0_1415_143902)">
<path d="M16 22C16 18.6863 18.6863 16 22 16H42V36C42 39.3137 39.3137 42 36 42H16V22Z" fill="#0033FF"/>
<path d="M22.2969 23.3636H26.2287L28.9332 29.9545H29.0696L31.7741 23.3636H35.706V35H32.6151V28.2727H32.5241L29.9332 34.9091H28.0696L25.4787 28.2273H25.3878V35H22.2969V23.3636Z" fill="white"/>
</g>
<path d="M53.4723 22.8636H56.5064L59.7109 30.6818H59.8473L63.0518 22.8636H66.0859V34.5H63.6996V26.9261H63.603L60.5916 34.4432H58.9666L55.9553 26.8977H55.8587V34.5H53.4723V22.8636ZM68.1129 34.5V22.8636H75.9538V24.892H70.5732V27.6648H75.5504V29.6932H70.5732V32.4716H75.9766V34.5H68.1129ZM77.4666 24.892V22.8636H87.0234V24.892H83.4609V34.5H81.0291V24.892H77.4666ZM89.1811 34.5H86.5447L90.5618 22.8636H93.7322L97.7436 34.5H95.1072L92.1925 25.5227H92.1016L89.1811 34.5ZM89.0163 29.9261H95.2436V31.8466H89.0163V29.9261ZM108.864 26.9375H106.376C106.33 26.6155 106.237 26.3295 106.097 26.0795C105.957 25.8258 105.777 25.6098 105.558 25.4318C105.338 25.2538 105.084 25.1174 104.796 25.0227C104.512 24.928 104.203 24.8807 103.87 24.8807C103.268 24.8807 102.743 25.0303 102.296 25.3295C101.849 25.625 101.503 26.0568 101.256 26.625C101.01 27.1894 100.887 27.875 100.887 28.6818C100.887 29.5114 101.01 30.2083 101.256 30.7727C101.506 31.3371 101.855 31.7633 102.302 32.0511C102.749 32.339 103.266 32.483 103.853 32.483C104.183 32.483 104.487 32.4394 104.768 32.3523C105.052 32.2652 105.304 32.1383 105.523 31.9716C105.743 31.8011 105.925 31.5947 106.069 31.3523C106.217 31.1098 106.319 30.8333 106.376 30.5227L108.864 30.5341C108.8 31.0682 108.639 31.5833 108.381 32.0795C108.128 32.572 107.785 33.0133 107.353 33.4034C106.925 33.7898 106.414 34.0966 105.819 34.3239C105.228 34.5473 104.559 34.6591 103.813 34.6591C102.775 34.6591 101.847 34.4242 101.029 33.9545C100.215 33.4848 99.5708 32.8049 99.0973 31.9148C98.6276 31.0246 98.3928 29.947 98.3928 28.6818C98.3928 27.4129 98.6314 26.3333 99.1087 25.4432C99.5859 24.553 100.234 23.875 101.052 23.4091C101.87 22.9394 102.79 22.7045 103.813 22.7045C104.487 22.7045 105.112 22.7992 105.688 22.9886C106.268 23.178 106.781 23.4545 107.228 23.8182C107.675 24.178 108.039 24.6193 108.319 25.142C108.603 25.6648 108.785 26.2633 108.864 26.9375ZM121.322 28.6818C121.322 29.9508 121.081 31.0303 120.6 31.9205C120.123 32.8106 119.471 33.4905 118.646 33.9602C117.824 34.4261 116.899 34.6591 115.873 34.6591C114.839 34.6591 113.911 34.4242 113.089 33.9545C112.267 33.4848 111.617 32.8049 111.14 31.9148C110.663 31.0246 110.424 29.947 110.424 28.6818C110.424 27.4129 110.663 26.3333 111.14 25.4432C111.617 24.553 112.267 23.875 113.089 23.4091C113.911 22.9394 114.839 22.7045 115.873 22.7045C116.899 22.7045 117.824 22.9394 118.646 23.4091C119.471 23.875 120.123 24.553 120.6 25.4432C121.081 26.3333 121.322 27.4129 121.322 28.6818ZM118.827 28.6818C118.827 27.8598 118.704 27.1667 118.458 26.6023C118.216 26.0379 117.873 25.6098 117.43 25.3182C116.987 25.0265 116.468 24.8807 115.873 24.8807C115.278 24.8807 114.759 25.0265 114.316 25.3182C113.873 25.6098 113.528 26.0379 113.282 26.6023C113.04 27.1667 112.918 27.8598 112.918 28.6818C112.918 29.5038 113.04 30.197 113.282 30.7614C113.528 31.3258 113.873 31.7538 114.316 32.0455C114.759 32.3371 115.278 32.483 115.873 32.483C116.468 32.483 116.987 32.3371 117.43 32.0455C117.873 31.7538 118.216 31.3258 118.458 30.7614C118.704 30.197 118.827 29.5038 118.827 28.6818ZM123.144 22.8636H126.178L129.383 30.6818H129.519L132.724 22.8636H135.758V34.5H133.371V26.9261H133.275L130.263 34.4432H128.638L125.627 26.8977H125.531V34.5H123.144V22.8636ZM137.785 22.8636H140.819L144.023 30.6818H144.16L147.364 22.8636H150.398V34.5H148.012V26.9261H147.915L144.904 34.4432H143.279L140.268 26.8977H140.171V34.5H137.785V22.8636ZM152.425 34.5V22.8636H160.266V24.892H154.886V27.6648H159.863V29.6932H154.886V32.4716H160.289V34.5H152.425ZM162.222 34.5V22.8636H166.813C167.692 22.8636 168.442 23.0208 169.063 23.3352C169.688 23.6458 170.164 24.0871 170.489 24.6591C170.819 25.2273 170.984 25.8958 170.984 26.6648C170.984 27.4375 170.817 28.1023 170.484 28.6591C170.15 29.2121 169.667 29.6364 169.035 29.9318C168.406 30.2273 167.645 30.375 166.751 30.375H163.677V28.3977H166.353C166.823 28.3977 167.213 28.3333 167.523 28.2045C167.834 28.0758 168.065 27.8826 168.217 27.625C168.372 27.3674 168.45 27.0473 168.45 26.6648C168.45 26.2784 168.372 25.9527 168.217 25.6875C168.065 25.4223 167.832 25.2216 167.518 25.0852C167.207 24.9451 166.815 24.875 166.342 24.875H164.683V34.5H162.222ZM168.506 29.2045L171.398 34.5H168.683L165.853 29.2045H168.506ZM182.989 26.9375H180.501C180.455 26.6155 180.362 26.3295 180.222 26.0795C180.082 25.8258 179.902 25.6098 179.683 25.4318C179.463 25.2538 179.209 25.1174 178.921 25.0227C178.637 24.928 178.328 24.8807 177.995 24.8807C177.393 24.8807 176.868 25.0303 176.421 25.3295C175.974 25.625 175.628 26.0568 175.381 26.625C175.135 27.1894 175.012 27.875 175.012 28.6818C175.012 29.5114 175.135 30.2083 175.381 30.7727C175.631 31.3371 175.98 31.7633 176.427 32.0511C176.874 32.339 177.391 32.483 177.978 32.483C178.308 32.483 178.612 32.4394 178.893 32.3523C179.177 32.2652 179.429 32.1383 179.648 31.9716C179.868 31.8011 180.05 31.5947 180.194 31.3523C180.342 31.1098 180.444 30.8333 180.501 30.5227L182.989 30.5341C182.925 31.0682 182.764 31.5833 182.506 32.0795C182.253 32.572 181.91 33.0133 181.478 33.4034C181.05 33.7898 180.539 34.0966 179.944 34.3239C179.353 34.5473 178.684 34.6591 177.938 34.6591C176.9 34.6591 175.972 34.4242 175.154 33.9545C174.34 33.4848 173.696 32.8049 173.222 31.9148C172.753 31.0246 172.518 29.947 172.518 28.6818C172.518 27.4129 172.756 26.3333 173.234 25.4432C173.711 24.553 174.359 23.875 175.177 23.4091C175.995 22.9394 176.915 22.7045 177.938 22.7045C178.612 22.7045 179.237 22.7992 179.813 22.9886C180.393 23.178 180.906 23.4545 181.353 23.8182C181.8 24.178 182.164 24.6193 182.444 25.142C182.728 25.6648 182.91 26.2633 182.989 26.9375ZM184.754 34.5V22.8636H192.594V24.892H187.214V27.6648H192.191V29.6932H187.214V32.4716H192.617V34.5H184.754Z" fill="#001529"/>
<defs>
<clipPath id="clip0_1415_143902">
<path d="M16 22C16 18.6863 18.6863 16 22 16H42V36C42 39.3137 39.3137 42 36 42H16V22Z" fill="white"/>
</clipPath>
</defs>
</svg>
